<mxfile host="app.diagrams.net" modified="2024-06-18T04:23:51.044Z" agent="Mozilla/5.0 (Windows NT 10.0; Win64; x64) AppleWebKit/537.36 (KHTML, like Gecko) Chrome/126.0.0.0 Safari/537.36" etag="YAIm4mnXSqEU5vIbrgSn" version="24.5.4" type="device">
  <diagram name="Page-1" id="pKttcjAKmjCqinSZ_XEx">
    <mxGraphModel dx="2117" dy="1691" grid="1" gridSize="10" guides="1" tooltips="1" connect="1" arrows="1" fold="1" page="1" pageScale="1" pageWidth="827" pageHeight="1169" math="0" shadow="0">
      <root>
        <mxCell id="0" />
        <mxCell id="1" parent="0" />
        <mxCell id="YlN1BHm4qdk-f0N_T-nO-43" value="City" style="swimlane;childLayout=stackLayout;horizontal=1;startSize=50;horizontalStack=0;rounded=1;fontSize=14;fontStyle=0;strokeWidth=2;resizeParent=0;resizeLast=1;shadow=0;dashed=0;align=center;arcSize=4;whiteSpace=wrap;html=1;" parent="1" vertex="1">
          <mxGeometry x="200" y="60" width="160" height="120" as="geometry" />
        </mxCell>
        <mxCell id="YlN1BHm4qdk-f0N_T-nO-44" value="+ Super ManagerID&lt;div&gt;+ Name of City&lt;/div&gt;&lt;div&gt;+ Amount of Branches&lt;/div&gt;" style="align=left;strokeColor=none;fillColor=none;spacingLeft=4;fontSize=12;verticalAlign=top;resizable=0;rotatable=0;part=1;html=1;" parent="YlN1BHm4qdk-f0N_T-nO-43" vertex="1">
          <mxGeometry y="50" width="160" height="70" as="geometry" />
        </mxCell>
        <mxCell id="YlN1BHm4qdk-f0N_T-nO-45" value="Branch" style="swimlane;childLayout=stackLayout;horizontal=1;startSize=50;horizontalStack=0;rounded=1;fontSize=14;fontStyle=0;strokeWidth=2;resizeParent=0;resizeLast=1;shadow=0;dashed=0;align=center;arcSize=4;whiteSpace=wrap;html=1;" parent="1" vertex="1">
          <mxGeometry x="480" y="60" width="160" height="120" as="geometry" />
        </mxCell>
        <mxCell id="YlN1BHm4qdk-f0N_T-nO-46" value="+ Branch ID&lt;div&gt;+ Amount of Employee&lt;/div&gt;&lt;div&gt;+ Branch&#39;s Name&lt;/div&gt;&lt;div&gt;+ ManagerID&lt;/div&gt;" style="align=left;strokeColor=none;fillColor=none;spacingLeft=4;fontSize=12;verticalAlign=top;resizable=0;rotatable=0;part=1;html=1;" parent="YlN1BHm4qdk-f0N_T-nO-45" vertex="1">
          <mxGeometry y="50" width="160" height="70" as="geometry" />
        </mxCell>
        <mxCell id="YlN1BHm4qdk-f0N_T-nO-47" value="Employee" style="swimlane;childLayout=stackLayout;horizontal=1;startSize=50;horizontalStack=0;rounded=1;fontSize=14;fontStyle=0;strokeWidth=2;resizeParent=0;resizeLast=1;shadow=0;dashed=0;align=center;arcSize=4;whiteSpace=wrap;html=1;" parent="1" vertex="1">
          <mxGeometry x="750" y="60" width="160" height="120" as="geometry" />
        </mxCell>
        <mxCell id="YlN1BHm4qdk-f0N_T-nO-48" value="+ Employee ID&lt;div&gt;+ Roles&lt;/div&gt;&lt;div&gt;+ Name&lt;/div&gt;&lt;div&gt;+ Birth&lt;/div&gt;" style="align=left;strokeColor=none;fillColor=none;spacingLeft=4;fontSize=12;verticalAlign=top;resizable=0;rotatable=0;part=1;html=1;" parent="YlN1BHm4qdk-f0N_T-nO-47" vertex="1">
          <mxGeometry y="50" width="160" height="70" as="geometry" />
        </mxCell>
        <mxCell id="YlN1BHm4qdk-f0N_T-nO-51" value="" style="edgeStyle=entityRelationEdgeStyle;fontSize=12;html=1;endArrow=ERoneToMany;rounded=0;exitX=1;exitY=0.25;exitDx=0;exitDy=0;entryX=0;entryY=0.25;entryDx=0;entryDy=0;" parent="1" source="YlN1BHm4qdk-f0N_T-nO-44" target="YlN1BHm4qdk-f0N_T-nO-46" edge="1">
          <mxGeometry width="100" height="100" relative="1" as="geometry">
            <mxPoint x="480" y="140" as="sourcePoint" />
            <mxPoint x="580" y="40" as="targetPoint" />
          </mxGeometry>
        </mxCell>
        <mxCell id="YlN1BHm4qdk-f0N_T-nO-52" value="" style="edgeStyle=entityRelationEdgeStyle;fontSize=12;html=1;endArrow=ERoneToMany;rounded=0;exitX=1;exitY=0.25;exitDx=0;exitDy=0;entryX=0;entryY=0.25;entryDx=0;entryDy=0;" parent="1" source="YlN1BHm4qdk-f0N_T-nO-46" target="YlN1BHm4qdk-f0N_T-nO-48" edge="1">
          <mxGeometry width="100" height="100" relative="1" as="geometry">
            <mxPoint x="640" y="119.5" as="sourcePoint" />
            <mxPoint x="760" y="119.5" as="targetPoint" />
          </mxGeometry>
        </mxCell>
        <mxCell id="YlN1BHm4qdk-f0N_T-nO-54" value="Owner" style="swimlane;childLayout=stackLayout;horizontal=1;startSize=50;horizontalStack=0;rounded=1;fontSize=14;fontStyle=0;strokeWidth=2;resizeParent=0;resizeLast=1;shadow=0;dashed=0;align=center;arcSize=4;whiteSpace=wrap;html=1;" parent="1" vertex="1">
          <mxGeometry x="-40" y="60" width="160" height="120" as="geometry" />
        </mxCell>
        <mxCell id="YlN1BHm4qdk-f0N_T-nO-55" value="+ OID&lt;div&gt;+ Name&lt;/div&gt;&lt;div&gt;+ Birth&lt;/div&gt;" style="align=left;strokeColor=none;fillColor=none;spacingLeft=4;fontSize=12;verticalAlign=top;resizable=0;rotatable=0;part=1;html=1;" parent="YlN1BHm4qdk-f0N_T-nO-54" vertex="1">
          <mxGeometry y="50" width="160" height="70" as="geometry" />
        </mxCell>
        <mxCell id="YlN1BHm4qdk-f0N_T-nO-57" value="" style="edgeStyle=entityRelationEdgeStyle;fontSize=12;html=1;endArrow=ERoneToMany;rounded=0;exitX=1;exitY=0.25;exitDx=0;exitDy=0;entryX=0;entryY=0.25;entryDx=0;entryDy=0;" parent="1" source="YlN1BHm4qdk-f0N_T-nO-55" target="YlN1BHm4qdk-f0N_T-nO-44" edge="1">
          <mxGeometry width="100" height="100" relative="1" as="geometry">
            <mxPoint x="400" y="260" as="sourcePoint" />
            <mxPoint x="500" y="160" as="targetPoint" />
          </mxGeometry>
        </mxCell>
        <mxCell id="YlN1BHm4qdk-f0N_T-nO-66" value="Customer" style="swimlane;childLayout=stackLayout;horizontal=1;startSize=50;horizontalStack=0;rounded=1;fontSize=14;fontStyle=0;strokeWidth=2;resizeParent=0;resizeLast=1;shadow=0;dashed=0;align=center;arcSize=4;whiteSpace=wrap;html=1;" parent="1" vertex="1">
          <mxGeometry x="760" y="310" width="160" height="120" as="geometry" />
        </mxCell>
        <mxCell id="YlN1BHm4qdk-f0N_T-nO-67" value="+ UID&lt;div&gt;+ Name&lt;/div&gt;&lt;div&gt;+ Address&lt;br&gt;+ Phone number&lt;/div&gt;" style="align=left;strokeColor=none;fillColor=none;spacingLeft=4;fontSize=12;verticalAlign=top;resizable=0;rotatable=0;part=1;html=1;" parent="YlN1BHm4qdk-f0N_T-nO-66" vertex="1">
          <mxGeometry y="50" width="160" height="70" as="geometry" />
        </mxCell>
        <mxCell id="YlN1BHm4qdk-f0N_T-nO-68" value="Bill" style="swimlane;childLayout=stackLayout;horizontal=1;startSize=50;horizontalStack=0;rounded=1;fontSize=14;fontStyle=0;strokeWidth=2;resizeParent=0;resizeLast=1;shadow=0;dashed=0;align=center;arcSize=4;whiteSpace=wrap;html=1;" parent="1" vertex="1">
          <mxGeometry x="500" y="310" width="160" height="120" as="geometry" />
        </mxCell>
        <mxCell id="YlN1BHm4qdk-f0N_T-nO-69" value="+ Bill ID&lt;div&gt;+ Amount of stuff&lt;/div&gt;&lt;div&gt;+ Date&lt;/div&gt;" style="align=left;strokeColor=none;fillColor=none;spacingLeft=4;fontSize=12;verticalAlign=top;resizable=0;rotatable=0;part=1;html=1;" parent="YlN1BHm4qdk-f0N_T-nO-68" vertex="1">
          <mxGeometry y="50" width="160" height="70" as="geometry" />
        </mxCell>
        <mxCell id="YlN1BHm4qdk-f0N_T-nO-71" value="" style="edgeStyle=entityRelationEdgeStyle;fontSize=12;html=1;endArrow=ERoneToMany;rounded=0;entryX=1;entryY=0.5;entryDx=0;entryDy=0;exitX=0;exitY=0.5;exitDx=0;exitDy=0;" parent="1" source="YlN1BHm4qdk-f0N_T-nO-67" target="YlN1BHm4qdk-f0N_T-nO-69" edge="1">
          <mxGeometry width="100" height="100" relative="1" as="geometry">
            <mxPoint x="390" y="330" as="sourcePoint" />
            <mxPoint x="490" y="230" as="targetPoint" />
          </mxGeometry>
        </mxCell>
        <mxCell id="YlN1BHm4qdk-f0N_T-nO-76" value="" style="edgeStyle=entityRelationEdgeStyle;fontSize=12;html=1;endArrow=ERoneToMany;rounded=0;entryX=1;entryY=0.5;entryDx=0;entryDy=0;exitX=0;exitY=0.75;exitDx=0;exitDy=0;" parent="1" source="YlN1BHm4qdk-f0N_T-nO-48" target="YlN1BHm4qdk-f0N_T-nO-69" edge="1">
          <mxGeometry width="100" height="100" relative="1" as="geometry">
            <mxPoint x="797" y="230" as="sourcePoint" />
            <mxPoint x="697" y="230" as="targetPoint" />
            <Array as="points">
              <mxPoint x="740" y="170" />
            </Array>
          </mxGeometry>
        </mxCell>
        <mxCell id="72hBHyIeX0a9uv0MPuXR-1" value="&lt;span style=&quot;font-size: 20px;&quot;&gt;Ingridients&lt;/span&gt;" style="swimlane;childLayout=stackLayout;horizontal=1;startSize=50;horizontalStack=0;rounded=1;fontSize=14;fontStyle=0;strokeWidth=2;resizeParent=0;resizeLast=1;shadow=0;dashed=0;align=center;arcSize=4;whiteSpace=wrap;html=1;" parent="1" vertex="1">
          <mxGeometry x="760" y="-120" width="160" height="120" as="geometry" />
        </mxCell>
        <mxCell id="72hBHyIeX0a9uv0MPuXR-2" value="+ Name&lt;div&gt;+ Amount&lt;/div&gt;&lt;div&gt;+ Prices&lt;/div&gt;" style="align=left;strokeColor=none;fillColor=none;spacingLeft=4;fontSize=12;verticalAlign=top;resizable=0;rotatable=0;part=1;html=1;" parent="72hBHyIeX0a9uv0MPuXR-1" vertex="1">
          <mxGeometry y="50" width="160" height="70" as="geometry" />
        </mxCell>
        <mxCell id="72hBHyIeX0a9uv0MPuXR-3" value="Type of Ingridient" style="swimlane;childLayout=stackLayout;horizontal=1;startSize=50;horizontalStack=0;rounded=1;fontSize=14;fontStyle=0;strokeWidth=2;resizeParent=0;resizeLast=1;shadow=0;dashed=0;align=center;arcSize=4;whiteSpace=wrap;html=1;" parent="1" vertex="1">
          <mxGeometry x="490" y="-120" width="160" height="90" as="geometry" />
        </mxCell>
        <mxCell id="72hBHyIeX0a9uv0MPuXR-4" value="+ ID&lt;div&gt;+ Type Name&lt;/div&gt;" style="align=left;strokeColor=none;fillColor=none;spacingLeft=4;fontSize=12;verticalAlign=top;resizable=0;rotatable=0;part=1;html=1;" parent="72hBHyIeX0a9uv0MPuXR-3" vertex="1">
          <mxGeometry y="50" width="160" height="40" as="geometry" />
        </mxCell>
        <mxCell id="72hBHyIeX0a9uv0MPuXR-5" value="" style="edgeStyle=entityRelationEdgeStyle;fontSize=12;html=1;endArrow=ERoneToMany;startArrow=ERzeroToMany;rounded=0;exitX=1;exitY=0.25;exitDx=0;exitDy=0;entryX=0;entryY=0.25;entryDx=0;entryDy=0;" parent="1" source="72hBHyIeX0a9uv0MPuXR-4" target="72hBHyIeX0a9uv0MPuXR-2" edge="1">
          <mxGeometry width="100" height="100" relative="1" as="geometry">
            <mxPoint x="620" y="-10" as="sourcePoint" />
            <mxPoint x="720" y="-110" as="targetPoint" />
          </mxGeometry>
        </mxCell>
        <mxCell id="72hBHyIeX0a9uv0MPuXR-7" value="" style="edgeStyle=entityRelationEdgeStyle;fontSize=12;html=1;endArrow=ERmany;startArrow=ERmany;rounded=0;exitX=1;exitY=0.5;exitDx=0;exitDy=0;entryX=0;entryY=0.25;entryDx=0;entryDy=0;" parent="1" source="YlN1BHm4qdk-f0N_T-nO-45" target="72hBHyIeX0a9uv0MPuXR-2" edge="1">
          <mxGeometry width="100" height="100" relative="1" as="geometry">
            <mxPoint x="600" y="40" as="sourcePoint" />
            <mxPoint x="700" y="-60" as="targetPoint" />
          </mxGeometry>
        </mxCell>
        <mxCell id="kUeTRvC1iidvYBBn2CVB-2" value="Products" style="swimlane;childLayout=stackLayout;horizontal=1;startSize=50;horizontalStack=0;rounded=1;fontSize=14;fontStyle=0;strokeWidth=2;resizeParent=0;resizeLast=1;shadow=0;dashed=0;align=center;arcSize=4;whiteSpace=wrap;html=1;" vertex="1" parent="1">
          <mxGeometry x="200" y="280" width="160" height="120" as="geometry" />
        </mxCell>
        <mxCell id="kUeTRvC1iidvYBBn2CVB-3" value="+Product ID&lt;div&gt;+Name&lt;/div&gt;&lt;div&gt;+Price&lt;/div&gt;" style="align=left;strokeColor=none;fillColor=none;spacingLeft=4;fontSize=12;verticalAlign=top;resizable=0;rotatable=0;part=1;html=1;" vertex="1" parent="kUeTRvC1iidvYBBn2CVB-2">
          <mxGeometry y="50" width="160" height="70" as="geometry" />
        </mxCell>
        <mxCell id="kUeTRvC1iidvYBBn2CVB-4" value="Type of Product" style="swimlane;childLayout=stackLayout;horizontal=1;startSize=50;horizontalStack=0;rounded=1;fontSize=14;fontStyle=0;strokeWidth=2;resizeParent=0;resizeLast=1;shadow=0;dashed=0;align=center;arcSize=4;whiteSpace=wrap;html=1;" vertex="1" parent="1">
          <mxGeometry x="-40" y="280" width="160" height="120" as="geometry" />
        </mxCell>
        <mxCell id="kUeTRvC1iidvYBBn2CVB-5" value="+Type ID&lt;div&gt;+Type&#39;s name&lt;/div&gt;&lt;div&gt;&lt;br&gt;&lt;/div&gt;" style="align=left;strokeColor=none;fillColor=none;spacingLeft=4;fontSize=12;verticalAlign=top;resizable=0;rotatable=0;part=1;html=1;" vertex="1" parent="kUeTRvC1iidvYBBn2CVB-4">
          <mxGeometry y="50" width="160" height="70" as="geometry" />
        </mxCell>
        <mxCell id="kUeTRvC1iidvYBBn2CVB-7" value="" style="edgeStyle=entityRelationEdgeStyle;fontSize=12;html=1;endArrow=ERoneToMany;rounded=0;exitX=0.999;exitY=0.169;exitDx=0;exitDy=0;exitPerimeter=0;entryX=0;entryY=0.5;entryDx=0;entryDy=0;" edge="1" parent="1" source="kUeTRvC1iidvYBBn2CVB-5" target="kUeTRvC1iidvYBBn2CVB-2">
          <mxGeometry width="100" height="100" relative="1" as="geometry">
            <mxPoint x="500" y="380" as="sourcePoint" />
            <mxPoint x="600" y="280" as="targetPoint" />
          </mxGeometry>
        </mxCell>
        <mxCell id="kUeTRvC1iidvYBBn2CVB-8" value="" style="edgeStyle=entityRelationEdgeStyle;fontSize=12;html=1;endArrow=ERoneToMany;startArrow=ERoneToMany;rounded=0;exitX=1;exitY=0.25;exitDx=0;exitDy=0;entryX=0;entryY=0.25;entryDx=0;entryDy=0;" edge="1" parent="1" source="kUeTRvC1iidvYBBn2CVB-3" target="YlN1BHm4qdk-f0N_T-nO-69">
          <mxGeometry width="100" height="100" relative="1" as="geometry">
            <mxPoint x="500" y="380" as="sourcePoint" />
            <mxPoint x="600" y="280" as="targetPoint" />
          </mxGeometry>
        </mxCell>
        <mxCell id="kUeTRvC1iidvYBBn2CVB-9" value="" style="edgeStyle=entityRelationEdgeStyle;fontSize=12;html=1;endArrow=ERoneToMany;startArrow=ERoneToMany;rounded=0;entryX=0;entryY=0.5;entryDx=0;entryDy=0;" edge="1" parent="1" source="kUeTRvC1iidvYBBn2CVB-3" target="YlN1BHm4qdk-f0N_T-nO-46">
          <mxGeometry width="100" height="100" relative="1" as="geometry">
            <mxPoint x="500" y="270" as="sourcePoint" />
            <mxPoint x="600" y="170" as="targetPoint" />
          </mxGeometry>
        </mxCell>
      </root>
    </mxGraphModel>
  </diagram>
</mxfile>
